<?xml version="1.0" standalone="no"?>
<!DOCTYPE svg PUBLIC "-//W3C//DTD SVG 20010904//EN"
 "http://www.w3.org/TR/2001/REC-SVG-20010904/DTD/svg10.dtd">
<svg version="1.0" xmlns="http://www.w3.org/2000/svg"
 width="32.000000pt" height="32.000000pt" viewBox="0 0 32.000000 32.000000"
 preserveAspectRatio="xMidYMid meet">
<metadata>
Created by potrace 1.10, written by Peter Selinger 2001-2011
</metadata>
<g transform="translate(0.000000,32.000000) scale(0.100000,-0.100000)"
fill="#000000" stroke="none">
<path d="M71 307 c-14 -6 -29 -25 -34 -40 -8 -23 -5 -34 12 -58 11 -15 21 -31
21 -34 0 -3 -14 -19 -31 -34 -36 -33 -42 -80 -14 -111 23 -26 69 -26 95 0 26
26 31 25 64 -5 31 -28 62 -32 93 -10 33 23 38 63 13 97 -19 26 -20 31 -6 41
74 57 0 185 -83 144 -25 -12 -30 -12 -50 5 -27 21 -47 22 -80 5z m77 -20 c20
-15 14 -24 -28 -48 -22 -13 -40 -27 -40 -33 -1 -18 -30 27 -30 45 0 10 12 27
26 38 25 19 45 19 72 -2z m129 -19 c46 -43 16 -118 -46 -118 -33 0 -71 39 -71
72 0 26 44 68 71 68 13 0 33 -10 46 -22z m-127 -61 c0 -30 41 -69 74 -71 33
-1 33 -16 0 -50 -28 -28 -84 -37 -84 -13 0 7 -13 26 -30 42 -36 34 -38 60 -8
92 28 29 48 29 48 0z m-47 -105 c31 -32 28 -57 -6 -69 -29 -9 -49 -5 -64 15
-17 22 -16 47 3 66 22 23 36 20 67 -12z m187 -32 c0 -41 -47 -66 -80 -43 l-22
15 30 18 c17 10 33 29 37 41 7 22 8 22 21 4 8 -10 14 -26 14 -35z"/>
<path d="M248 186 c-26 -19 -22 -27 7 -14 14 6 25 15 25 20 0 12 -12 9 -32 -6z"/>
</g>
</svg>
